<svg id="eYW61MnbkxG1" xmlns="http://www.w3.org/2000/svg" xmlns:xlink="http://www.w3.org/1999/xlink" viewBox="0 0 300 200" shape-rendering="geometricPrecision" text-rendering="geometricPrecision" project-id="973a8f35594145cfbe949c3587f0e6b2" export-id="fc644d909c0d412a885c1acac424b3c9" cached="false" style="background-color:#fff"><g transform="matrix(.308749 0 0 0.308749 74.607759-61.806041)"><g transform="matrix(-1.045645 0.219504 0.219504 1.045645 746.836423 259.697228)"><path d="M259.076,17.719c-4.01-.256-2.042,5.467-6.258,5.006-2.182-2.162-1.385-7.737,1.251-8.761.281.971.035,2.469,1.252,2.503.28-.97.034-2.468,1.251-2.503.299,1.786,2.062,2.111,2.504,3.755Z"/><path d="M173.969,17.719c-1.584,1.436-9.868,2.515-11.265,0c4.306.479,7.803-6.286,11.265-2.503-1.511.264-.771,1.389,0,2.503Z"/><path d="M240.303,20.221c-1.901,1.276-8.113-1.155-10.014-3.754c5.03-.44,9.158.02,10.014,3.754Z"/><path d="M290.365,57.769c1.164-2.922,4.529-10.066,0-5.006-1.437-2.351-.207-10.399,5.006-10.013.505,7.179.247,13.597-5.006,15.019Z"/><path d="M112.876,15.406h-18.773c-.743-.873,29.706-4.351,18.773,0Z"/><path d="M369.214,86.556c-.326-1.948-2.745-.868-3.754,0c3.313-2.11,1.396-9.449,3.754-12.516c1.525,1.894,2.458,10.78,0,12.516Z"/><path d="M295.371,89.058c1.109-4.731.937-10.745,3.756-13.767-.142,5.699-.024,11.657-3.756,13.767Z"/><path d="M191.491,85.303c-7.078-.848-17.994,2.142-21.276-2.503c9.66.83,16.427-3.137,21.276,2.503Z"/><path d="M334.17,125.35c-1.795-1.543-2.371-4.304-2.503-7.51c2.142-1.195,2.521-4.152,5.006-5.005-1.2,3.807,2.68,12.692-2.503,12.515Z"/><path d="M289.11,124.1c.39-3.784-1.39-9.734,2.503-10.013-1.03,3.141,2.434,10.775-2.503,10.013Z"/><path d="M188.987,126.606c-4.574.851-9.1,1.746-15.019,1.251c1.243-3.813,9.789-6.836,13.769-3.754-7.763.486.084.641,1.25,2.503Z"/><path d="M200.253,169.159c-.073-5.496.504-10.345,2.503-13.768-1.261,4.163,2.766,13.615-2.503,13.768Z"/><path d="M158.95,46.505c5.797.809,10.295-4.935,15.019,0-5.767-1.534-11.103,3.833-15.019,0Z"/><path d="M46.229,20.57c8.204.277,14.635-1.219,21.277-2.503-2.471,4.077-20.887,4.58-21.277,2.503Z"/><path d="M281.604,126.606c1.312-2.515.599-13.491,2.503-11.265.411,4.236-.976,13.112-2.503,11.265Z"/><path d="M285.358,129.109c.745-6.283.367-10.093,1.252-13.768c2.044,2.957,2.173,12.365-1.252,13.768Z"/><path d="M367.961,126.604c-5.002,1.868-15.024,1.868-20.025,0-1.197-7.076,1.841-16.464,0-20.024-46.83,1.298-86.581,1.938-135.169,1.251c20.958-7.99,48.129-3.82,75.094-5.007c43.017-1.89,87.378,1.49,122.653-7.509c4.33-5.413,3.127-19.587-2.503-22.527c2.882,6.014.101,13.255-2.503,17.521-8.105.18-16.143.289-21.276-2.502.216-7.711-1.787-17.64,5.006-18.773-31.898,1.353-56.328-3.795-86.357-1.252.331,5.869,3.998,16.742-2.503,18.773c1.253-5.3,2.223-13.686,0-18.773-29.323-3.635-65.038-.877-91.364-7.51c62.248-1.654,128.882,7.685,183.979,1.252-.668-4.338,1.859-11.87-2.503-12.516.728,4.898-1.077,7.267-2.503,10.013-8.161-.962-16.246,1.611-21.275,0c.783-3.804-1.603-10.78,1.252-12.516-5.466,15.413,17.483,12.443,20.023,5.006-6.653-8.223-20.667-9.609-32.541-11.264-47.229-6.583-111.254.445-155.193-10.013c36.4,2.273,86.049,1.268,121.401,2.503c7.167.251,22.518,6.253,21.276-7.509-3.388,4.539-11.951,3.901-20.025,3.754-2.494-1.276,2.634-8.914-1.251-11.264-51.107-5.322-113.92-14.324-167.711-11.264-41.501,2.359-82.501-.122-117.646,5.006-12.466,1.817-24.623,7.461-36.295,5.006C22.247,8.671,47.515,6.471,75.095,5.203c32.793-1.507,69.275-6.218,101.377-5.007c6.743.256,13.555,3.074,20.025,3.756c52.454,5.521,106.536,1.751,148.937,17.521c3.519,3.539,1.673,11.946,2.503,15.02c22.246,3.101,56.888-.582,48.811,28.785c5.949-.524,9.027,1.819,13.769,2.503c4.653,6.229,8.617,18.292,5.005,28.787-7.016,9.671-28.406,4.97-41.302,8.762c7.52,10.533,1.729,26.649-6.257,32.54-31.736,6.23-69.292,6.638-106.385,7.51c5.988,5.631,10.071,17.214,6.259,28.786-27.447,16.401-68.675,7.55-100.125,12.516-15.694,2.479-21.298,6.535-33.792,7.51-54.56,4.252-64.943-32.562-103.881-47.561-5.108-1.966-11.236-2.437-16.271-3.754-3.554-.933-13.292.196-13.767-7.51.09-5.264,13.964,2.216,15.02,0-1.541-2.722-13.286-6.875-7.511-8.762c35.521,12.869,61.882,56.016,106.385,61.327c22.711,2.71,44.086-4.475,67.584-6.259c25.915-1.966,51.778,2.017,75.094-6.258-5.259-2.249-14.193-.824-20.024-2.503-.108-7.2-.271-14.455,1.252-20.025c6.923-2.259,13.888.48,21.276,1.252c3.234,5.568,2.444,14.378,3.754,18.773c17.154-49.229-104.771-10.208-123.904-36.295c32.543,9.766,100.991,5.861,148.937,3.754c34.288-1.507,102.811,3.411,81.353-31.289c2.749,4.647,1.047,13.937-1.256,17.522ZM326.659,17.719c-1.144,2.194-.43,6.245-2.503,7.51c4.209,1.758,10.931,2.934,15.021,1.251c1.364-8.457-6.901-7.285-12.518-8.761Zm60.076,55.068v13.768c4.332,1.925,11.41,1.106,17.522,1.252c8.308-11.294-5.278-20.534-17.522-15.02Zm-35.044,37.548c-2.397,3.025-.789,10.057-1.251,15.019h13.768c9.719-7.536-.683-22.006-12.517-15.019ZM240.303,155.392c-1.666,3.758-1.273,9.576-1.252,15.021c7.063-.39,11.13,2.219,18.773,1.251c2.625-3.851,1.255-12.357-1.252-15.021-6.133.292-9.475-2.205-16.269-1.251Z"/></g><g transform="matrix(-.473218-.682572 0.682572-.473218 294.640082 940.587964)"><path d="M0,129.734c5.056,1.287,3.347,9.338,10.379,8.649c2.95-.709-.364-2.23,0-5.189c4.51,2.985,8.768,6.223,8.649,13.838-6.934-2.29-11.824-6.629-19.028-8.649v-8.649Z" fill-rule="evenodd"/><path d="M19.028,131.46c3.663,16.518,24.55,15.811,34.596,25.947-11.769-1.308-20.868-9.217-29.407-8.649.714-8.21-5.903-9.088-5.189-17.298Z" fill-rule="evenodd"/><path d="M247.36,153.95c9.951-.126,16.131,18.447,20.758,29.405-8.991-7.729-11.192-22.252-20.758-29.405Z" fill-rule="evenodd"/><path d="M385.74,205.84c4.146,3.703-5.014,8.726-10.379,8.649c1.757-4.586,7.999-4.686,10.379-8.649Z" fill-rule="evenodd"/><path d="M321.74,243.9c4.889,3.89-2.845,9.726-3.46,13.838-4.889-3.89,2.842-9.726,3.46-13.838Z" fill-rule="evenodd"/><path d="M0,153.95c10.402,3.682,40.146,8.392,53.624,13.838c40.282,16.275,58.092,66.777,124.55,51.894-6.811-5.875-15.101-10.27-22.488-15.567c13.222,1.081,20.92,12.012,34.596,17.297c7.584,2.931,18.474,2.089,27.677,6.92c11.564,6.071,21.198,19.362,32.866,27.677c24.197,17.243,40.023,31.271,64.002,6.919-3.854,7.102-9.293,12.617-19.027,13.838c18.444,3.007,35.974-11.953,36.325-25.946.427-16.97-25.394-39.572-36.325-57.084-19.65-31.474-23.18-54.689-36.326-79.57c5.988-3.042,6.72,13.99,13.838,15.568c7.606-5.078,5.466-19.906,15.568-22.487-1.614,8.764-4.848,15.91-6.918,24.217c5.624,3.309,9.881,3.427,13.838,1.73c6.081-24.971,9.578-51.964,32.865-55.354-13.657,11.844-36.839,46.024-15.568,65.732c14.236-11.135,18.784-31.958,34.597-41.515c3.048,6.002-1.768,7.836,8.648,5.189-5.946,5.585-16.236,6.826-20.757,13.838c2.43,2.873,9.672-4.067,17.297-1.73-15.773,4.983-27.891,13.624-31.135,31.137c1.87,12.262,21.477,13.787,25.946,32.865c1.311,5.597-2.26,12.064-1.729,17.299c2.02,19.947,29.403,38.392,39.785,15.568c2.611,5.559-.23,6.872,5.189,6.919c8.24-.327,15.966-9.178,17.298-20.758c5.025-43.669-5.317-129.16-20.758-152.22-5.617-8.387-16.994-15.299-29.406-17.297-58.245-9.38-117.67,20.656-172.98,20.757-68.449.125-126.98-38.346-185.09-48.435v-5.189c28.95,8.619,55.573,15.987,83.03,24.217c25.389,7.61,52.703,19.662,83.03,22.488c34.634,3.226,63.573-4.378,93.409-10.379c44.027-8.854,116.44-25.423,136.65,13.838c10.15,19.708,10.938,52.111,13.839,74.381c3.635,27.895,10.597,61.064,5.189,83.03-1.816,7.374-10.973,14.042-17.298,25.946-5.971,11.24-8.695,21.203-15.568,25.947-4.525,3.125-12.553.71-20.757,5.189-8.051,4.396-10.497,15.109-22.488,19.028-8.403,2.746-20.753,1.121-31.136,3.459-12.255,2.761-19.113,9.001-27.677,8.649-13.187-.541-39.07-11.738-53.624-22.488-7.122-5.26-9.862-15.02-17.298-20.757-27.358-21.105-82.792-17.641-112.44-31.137-22.14-10.08-32.791-35.566-50.164-43.244-13.597-6.007-35.367-5.064-46.703-8.647v-15.568L0,153.95ZM364.99,256.01c3.907-6.804,8.095-2.571,12.109-8.649c2.249,4.296-5.075,7.179,0,8.649c4.095-6.283,10.517-10.24,12.108-19.028-11.298-.811-22.458-1.761-32.867-3.46-2.915,8.062-3.552,24.269,8.65,22.488Z" fill-rule="evenodd"/><path d="M219.68,140.11c1.396-5.323,10.558,10.831,10.379,1.729c6.086,5.444,12.56,10.504,13.838,20.758-9.095-6.473-15.122-16.014-24.217-22.487Z" fill-rule="evenodd"/><path d="M164.33,162.6c1.46-2.458,8.919,3.65,10.379,6.919c2.568-.755-.683-2.213,0-5.189c7.596,6.242,14.36,13.316,22.487,19.027-10.021-.957-25.064-11.824-32.866-20.757Z" fill-rule="evenodd"/><path d="M207.58,138.38c-6.535-3.267-16.759-2.845-19.027-10.379c7.358-3.752,17.359,2.874,19.027,10.379Z" fill-rule="evenodd"/></g><g transform="matrix(1.132974 0.402293-.402293 1.132974-262.816942 229.208505)"><path d="M361.405,18.798c.183,3.935-2.72,8.736.351,11.859.581-1.918,2.404-2.862,1.882-1.278c3.681-.369-.205-4.866,1.708-7.206-2.92-.673-1.599-2.539-3.941-3.375Z" fill-rule="evenodd"/><path d="M323.558,19.741c-1.958,1.333-1.575,8.389.848,10.972c2.115-4.334-1.078-7.171-.848-10.972Z" fill-rule="evenodd"/><path d="M373.98,89.99c-3.714,1.095-4.415,7.683-4.585,10.26c3.952-1.163,2.957-7.273,4.585-10.26Z" fill-rule="evenodd"/><path d="M321.97,72.5c-2.411,1.459-2.76,8.722-4.691,12.531c4.131-1.946,5.219-9.416,4.691-12.531Z" fill-rule="evenodd"/><path d="M270.18,127.44c-4.752,9.811-19.64,1.719-24.672-8c5.153-4.7,10.842-7.498,16.442-10.608c2.885,6.549,11.457,11.943,8.23,18.608Zm-21.122-6.01c4.796,2.948,9.505,7.987,15.086,8.457c11.746-11.772-8.793-23.322-15.086-8.457Z" fill-rule="evenodd"/><path d="M253.65,111.17c-2.67-1.188-6.125,1.818-5.647,3.832c2.115-.45,3.98-1.786,5.647-3.832Z" fill-rule="evenodd"/><path d="M2.984,27.804c19.307-.023,39.398-2.352,60.289-3.524c19.921-1.12,40.249-.095,60.179-1.253c17.961-1.042,38.129-5.02,57.842-9.561c20.324-4.681,39.488-12.878,57.559-13.218c13.051-.246,29.157,4.603,43.064,4.315c9.181-.19,19.653-2.939,30.252-4.035c21.304-2.203,44.943,3.055,65.787,5.389c12.365,1.385,29.646,4.323,29.889,13.256.524,19.289-27.008,14.056-36.328,16.955-13.509,1.351-27.446-2.572-41.397-1.047-7.37.806-14.535,4.626-21.66,5.351-9.644.983-20.19-3.831-27.589,5.527c42.685,20.521,87.223,26.455,127.475,49.3c5.767,34.513-41.071,12.854-62.277,7.074-26.268-7.161-48.3-16.484-64.968-13.095-.35,10.063,16.708,15.225,17.493,24.967-10.56,23.538-31.963,8.575-42.513,32.15-10.699-.138-23.185,6.185-32.632,6.199-7.419.01-15.125-4.914-25.168-7.113-23.599-5.165-59.929-1.638-81.196-7.028-22.981-5.826-35.052-17.105-52.047-7.019l-5.325-2.983c8.888-5.595,19.42-5.348,29.083-8.189.795-1.107-2.106-4.701,1.102-4.046-.22,1.557.171,2.94,1.171,4.154.967-2.802-1.314-8.549,1.813-9.479.1,3.21-.55,6.631,1.843,9.196c21.318-4.805,47.895-5.07,65.761-13.287-18.073.189-38.065,2.406-58.541-14.155c28.437,15.536,61.903,14.136,83.4-1.064-5.337-3.071-11.74-3.682-13.7-8.847l4.436,2.487c-1.045-6.191-9.188-14.342-6.843-18.997-.98,21.186,32.324,21.716,50.648,36.556c3.521,2.852,4.986,8.622,8.552,11.79c12.459,11.079,38.325,27.914,43.629,11.63c1.475-4.527-5.874-17.871-9.398-22.763-6.857-9.515-17.315-22.527-25.977-28.557C221.175,64.04,201.021,63,197.47,47.026c5.059,3.557,6.6,8.104,13.593,11.116c3.937-3.393-.896-8.159,2.702-8.98.786,2.865.175,8.934,4.612,8.417c3.356-4.005,6.206-9.805,10.124-11.819-2.581,5.461-8.058,11.736-6.682,16.081c14.856,5.141,28.032,15.589,34.783,25.328c31.917-10.33,73.244,4.919,112.577,17.624c10.837,3.501,33.131,11.804,36.853.833c2.115-6.233-8.018-11.988-14.763-15.274-34.382-16.744-79.107-26.327-115.549-41.446-1.908-.621-8.7,3.843-6.816-.324c10.694-11.2,25.805-10.954,39.771-12.692c5.622-.7,11.034-2.603,17.008-3.294c26.229-3.041,50.338,4.846,68.879-2.207c6.501-2.474,12.802-8.383,8.456-15.085-33.852-7.884-68.854-11.57-103.917-8.105-18.226,1.801-33.92.942-50.984-.589-32.881-2.953-66.637,12.387-96.51,18.207-16.394,3.195-32.968,1.52-50.203,2.181C68.287,28.264,31.807,30.771,0,33.128c.995-1.775,1.99-3.55,2.984-5.324ZM264.589,91.646c.395,11.847,9.998,21.099,12.129,32.457c6.438.748,12.617.576,16.336-8.335-5.655-8.494-16.405-22.274-28.465-24.122Zm-43.467,23.451c-2.333-.235.908,10.869,4.329,4.76-2.22-1.369-3.948-2.875-4.329-4.76Zm34.5,21.673c-11.813-7.808-30.909-17.961-31.703-3.777-8.923-9.287-27.699-17.935-34.863-4.381c7.407-3.651,15.946-.771,21.513,7.394-.996,1.774-1.99,3.55-2.985,5.324c4.788,2.848,9.016,3.707,13.418,5.189c8.938-5.838,28.133,3.156,34.62-9.749Zm-64.013-4.395c4.305,3.021,6.208,6.721,12.316,9.237.995-1.775,1.99-3.551,2.984-5.325-2.4-4.755-11.471-9.038-15.3-3.912Z" fill-rule="evenodd"/><path d="M320.291,21.408c-1.362-2.508-1.234,5.898-.82,7.705c3.498-.554.371-5.536.82-7.705Z" fill-rule="evenodd"/><path d="M239.77,96.394c-2.115.449-3.981,1.787-5.646,3.832-.551-3.857,6.066-4.896,7.354-11.038-5.153,2.885-9.686,10.019-12.503,13.983c3.877-1.264,7.735-2.605,10.795-6.777Z" fill-rule="evenodd"/><path d="M61.931,91.17c1.902,1.954,2.553,4.263,1.951,6.924-16.353-.565-31.533,3.027-47.544,3.672c15.331,5.78,32.779-3.897,50.486,1.477-.191-3.683-1.925-6.93-2.231-10.58c1.717-3.636,5.314-.588,7.032-4.223-20.932-.899-40.87,1.712-60.396,5.797c14.697,1.758,33.589-4.559,50.702-3.067Z" fill-rule="evenodd"/></g></g></svg>
