<svg id="wdd231-logo" xmlns="http://www.w3.org/2000/svg" xmlns:xlink="http://www.w3.org/1999/xlink" viewBox="0 0 24 24" shape-rendering="geometricPrecision" text-rendering="geometricPrecision" project-id="2b33f84a858448529862e61457bda324" export-id="0fa82604c74246639b0d78fc8ec6919a" cached="false" width="24" height="24"><defs><linearGradient id="wdd231-logo-s-path1-fill" x1="200" y1="84.5" x2="200" y2="306.5" spreadMethod="pad" gradientUnits="userSpaceOnUse" gradientTransform="translate(0 0)"><stop id="wdd231-logo-s-path1-fill-0" offset="2%" stop-color="#efefef"/><stop id="wdd231-logo-s-path1-fill-1" offset="9%" stop-color="#e4e4e6"/><stop id="wdd231-logo-s-path1-fill-2" offset="90%" stop-color="#f7f7f7"/><stop id="wdd231-logo-s-path1-fill-3" offset="99%" stop-color="#e4e4e6"/></linearGradient><linearGradient id="wdd231-logo-s-rect1-fill" x1="0.608817" y1="0.257293" x2="1" y2="0.5" spreadMethod="pad" gradientUnits="objectBoundingBox" gradientTransform="translate(0 0)"><stop id="wdd231-logo-s-rect1-fill-0" offset="0%" stop-color="#b8e2c8"/><stop id="wdd231-logo-s-rect1-fill-1" offset="100%" stop-color="#471d37"/></linearGradient><linearGradient id="wdd231-logo-s-circle1-fill" x1="0" y1="-6.62" x2="0" y2="1.8" spreadMethod="pad" gradientUnits="userSpaceOnUse" gradientTransform="translate(0 0)"><stop id="wdd231-logo-s-circle1-fill-0" offset="29%" stop-color="#e5dcdc"/><stop id="wdd231-logo-s-circle1-fill-1" offset="67%" stop-color="#cacfde"/></linearGradient><linearGradient id="wdd231-logo-s-path3-fill" x1="200.11" y1="316.25" x2="200.11" y2="303.16" spreadMethod="pad" gradientUnits="userSpaceOnUse" gradientTransform="translate(0 0)"><stop id="wdd231-logo-s-path3-fill-0" offset="0%" stop-color="#e7e9f0"/><stop id="wdd231-logo-s-path3-fill-1" offset="62%" stop-color="#b8bbc4"/></linearGradient><linearGradient id="wdd231-logo-s-rect2-fill" x1="193.5" y1="7.92" x2="193.5" y2="1.17" spreadMethod="pad" gradientUnits="userSpaceOnUse" gradientTransform="translate(0 0)"><stop id="wdd231-logo-s-rect2-fill-0" offset="0%" stop-color="#efefef"/><stop id="wdd231-logo-s-rect2-fill-1" offset="14%" stop-color="#b8bbc4"/><stop id="wdd231-logo-s-rect2-fill-2" offset="35%" stop-color="#f7f7f7"/></linearGradient><linearGradient id="wdd231-logo-s-path4-fill" x1="200" y1="311.24" x2="200" y2="295.88" spreadMethod="pad" gradientUnits="userSpaceOnUse" gradientTransform="translate(0 0)"><stop id="wdd231-logo-s-path4-fill-0" offset="36%" stop-color="#e2e2e2"/><stop id="wdd231-logo-s-path4-fill-1" offset="74%" stop-color="#d0d3db"/><stop id="wdd231-logo-s-path4-fill-2" offset="94%" stop-color="#e2e2e2"/></linearGradient><linearGradient id="wdd231-logo-s-rect3-fill" x1="-0.78" y1="6.34" x2="9.66" y2="6.34" spreadMethod="pad" gradientUnits="userSpaceOnUse" gradientTransform="translate(0 0)"><stop id="wdd231-logo-s-rect3-fill-0" offset="4%" stop-color="#efefef"/><stop id="wdd231-logo-s-rect3-fill-1" offset="21%" stop-color="#d8dbe6"/><stop id="wdd231-logo-s-rect3-fill-2" offset="45%" stop-color="#f7f7f7"/></linearGradient><linearGradient id="wdd231-logo-s-rect4-fill" x1="-0.78" y1="11.27" x2="9.66" y2="11.27" spreadMethod="pad" gradientUnits="userSpaceOnUse" gradientTransform="translate(0 0)"><stop id="wdd231-logo-s-rect4-fill-0" offset="4%" stop-color="#efefef"/><stop id="wdd231-logo-s-rect4-fill-1" offset="21%" stop-color="#d8dbe6"/><stop id="wdd231-logo-s-rect4-fill-2" offset="45%" stop-color="#f7f7f7"/></linearGradient><linearGradient id="wdd231-logo-s-rect5-fill" x1="-0.78" y1="11.27" x2="9.66" y2="11.27" spreadMethod="pad" gradientUnits="userSpaceOnUse" gradientTransform="translate(0 0)"><stop id="wdd231-logo-s-rect5-fill-0" offset="4%" stop-color="#efefef"/><stop id="wdd231-logo-s-rect5-fill-1" offset="21%" stop-color="#d8dbe6"/><stop id="wdd231-logo-s-rect5-fill-2" offset="45%" stop-color="#f7f7f7"/></linearGradient><linearGradient id="wdd231-logo-s-rect6-fill" x1="0.536522" y1="0.308485" x2="0.995739" y2="0.036183" spreadMethod="pad" gradientUnits="objectBoundingBox" gradientTransform="translate(0 0)"><stop id="wdd231-logo-s-rect6-fill-0" offset="0%" stop-color="#b29baa"/><stop id="wdd231-logo-s-rect6-fill-1" offset="100%" stop-color="#000"/></linearGradient><linearGradient id="wdd231-logo-s-path5-fill" x1="113.47" y1="203.25" x2="293.47" y2="203.25" spreadMethod="pad" gradientUnits="userSpaceOnUse" gradientTransform="translate(0 0)"><stop id="wdd231-logo-s-path5-fill-0" offset="2%" stop-color="#efefef"/><stop id="wdd231-logo-s-path5-fill-1" offset="5%" stop-color="#d8dbe6"/><stop id="wdd231-logo-s-path5-fill-2" offset="11%" stop-color="#f7f7f7"/><stop id="wdd231-logo-s-path5-fill-3" offset="89%" stop-color="#efefef"/><stop id="wdd231-logo-s-path5-fill-4" offset="94%" stop-color="#d1d4de"/><stop id="wdd231-logo-s-path5-fill-5" offset="100%" stop-color="#efefef"/></linearGradient><linearGradient id="wdd231-logo-s-path6-fill" x1="201.8" y1="359.17" x2="201.8" y2="342.16" spreadMethod="pad" gradientUnits="userSpaceOnUse" gradientTransform="translate(0 0)"><stop id="wdd231-logo-s-path6-fill-0" offset="16%" stop-color="rgba(216,219,230,0)"/><stop id="wdd231-logo-s-path6-fill-1" offset="32%" stop-color="rgba(216,219,230,0.7)"/><stop id="wdd231-logo-s-path6-fill-2" offset="52%" stop-color="rgba(216,219,230,0)"/></linearGradient><linearGradient id="wdd231-logo-s-circle2-fill" x1="0" y1="-5.26" x2="0" y2="3.01" spreadMethod="pad" gradientUnits="userSpaceOnUse" gradientTransform="translate(0 0)"><stop id="wdd231-logo-s-circle2-fill-0" offset="20%" stop-color="#b3b3b3"/><stop id="wdd231-logo-s-circle2-fill-1" offset="100%" stop-color="#ededed"/></linearGradient><linearGradient id="wdd231-logo-s-rect7-fill" x1="9.56" y1="-2.64" x2="9.56" y2="3.53" spreadMethod="pad" gradientUnits="userSpaceOnUse" gradientTransform="translate(0 0)"><stop id="wdd231-logo-s-rect7-fill-0" offset="20%" stop-color="#b3b3b3"/><stop id="wdd231-logo-s-rect7-fill-1" offset="100%" stop-color="#ededed"/></linearGradient></defs><g id="wdd231-logo-u-laptop" transform="matrix(.062016 0 0 0.062016-.403104-.403511)"><path id="wdd231-logo-s-path1" d="M53.92,89.69h292.16c5.660919,0,10.25,4.589081,10.25,10.25v204.41h-312.66v-204.41c0-5.660919,4.589081-10.25,10.25-10.25Z" fill="url(#wdd231-logo-s-path1-fill)" stroke="#e6e6e6" stroke-miterlimit="10"/><path id="wdd231-logo-s-path2" d="M102.91,41.69h203.42v310.66h-203.42c-5.108634,0-9.25-4.141366-9.25-9.25v-292.16c0-5.108634,4.141366-9.25,9.25-9.25Z" transform="matrix(0 1-1 0 397.02-2.98)" fill="none" stroke="#f6f6f7" stroke-miterlimit="10"/><rect id="wdd231-logo-s-rect1" width="294.67" height="185" rx="1.67" ry="1.67" transform="translate(52.67 104.02)" fill="url(#wdd231-logo-s-rect1-fill)"/><circle id="wdd231-logo-s-circle1" r="1.71" transform="translate(200 97.71)" fill="url(#wdd231-logo-s-circle1-fill)"/><path id="wdd231-logo-s-path3" d="M392.13,306L8.1,306v1c8.0609,2.208989,16.381908,3.325632,24.74,3.32h334.32c8.448341.006479,16.858461-1.133934,25-3.39Z" fill="url(#wdd231-logo-s-path3-fill)"/><rect id="wdd231-logo-s-rect2" width="387" height="7" rx="2" ry="2" transform="translate(6.5 300.02)" fill="url(#wdd231-logo-s-rect2-fill)"/><path id="wdd231-logo-s-path4" d="M167.92,300c.718539,2.636714,3.158993,4.4308,5.89,4.33h52.37c2.731007.1008,5.171461-1.693286,5.89-4.33Z" fill="url(#wdd231-logo-s-path4-fill)"/></g><g id="wdd231-logo-u-phone" transform="matrix(.044745 0 0 0.044745 11.531676 6.717314)"><rect id="wdd231-logo-s-rect3" width="8.7" height="12.68" rx="1.47" ry="1.47" transform="translate(123.2 92.42)" fill="url(#wdd231-logo-s-rect3-fill)"/><rect id="wdd231-logo-s-rect4" width="8.7" height="22.55" rx="1.97" ry="1.97" transform="translate(123.2 115.27)" fill="url(#wdd231-logo-s-rect4-fill)"/><rect id="wdd231-logo-s-rect5" width="8.7" height="22.55" rx="1.97" ry="1.97" transform="translate(123.2 142.98)" fill="url(#wdd231-logo-s-rect5-fill)"/><rect id="wdd231-logo-s-rect6" width="286.5" height="132" rx="12.27" ry="12.27" transform="matrix(0 1-1 0 267.86 60)" fill="url(#wdd231-logo-s-rect6-fill)"/><path id="wdd231-logo-s-path5" d="M255.53,51h-107.46c-11.733417.032959-21.237041,9.536583-21.27,21.27v262c.032959,11.733417,9.536583,21.237041,21.27,21.27h107.46c11.733417-.032959,21.237041-9.536583,21.27-21.27v-262c-.032959-11.733417-9.536583-21.237041-21.27-21.27ZM267.8,334.23c0,6.776534-5.493466,12.27-12.27,12.27h-107.46c-6.776534,0-12.27-5.493466-12.27-12.27v-262c.022041-6.760908,5.509056-12.230036,12.27-12.23h15.73c.552285,0,1,.447715,1,1v1.11c.010996,4.629107,3.760893,8.379004,8.39,8.39h57.23c4.629107-.010996,8.379004-3.760893,8.39-8.39v-1.11c0-.552285.447715-1,1-1h15.73c6.772628.00552,12.260002,5.497369,12.26,12.27Z" fill="url(#wdd231-logo-s-path5-fill)"/><path id="wdd231-logo-s-path6" d="M255.53,351h-107.46c-11.733417-.032959-21.237041-9.536583-21.27-21.27v4.5c.032959,11.733417,9.536583,21.237041,21.27,21.27h107.46c11.733417-.032959,21.237041-9.536583,21.27-21.27v-4.5c-.032959,11.733417-9.536583,21.237041-21.27,21.27Z" fill="url(#wdd231-logo-s-path6-fill)"/><circle id="wdd231-logo-s-circle2" r="1.72" transform="translate(217.71 62.59)" fill="url(#wdd231-logo-s-circle2-fill)"/><rect id="wdd231-logo-s-rect7" width="19.13" height="2.56" rx="1.28" ry="1.28" transform="translate(192.24 61.31)" fill="url(#wdd231-logo-s-rect7-fill)"/></g><path id="wdd231-logo-u-two" d="M66.35,73.5h-31.78v-6.3l15-16c1.717745-1.804469,3.248849-3.777817,4.57-5.89.913427-1.431612,1.424645-3.082709,1.48-4.78.102359-1.757614-.453816-3.490313-1.56-4.86-1.148235-1.225714-2.783743-1.874783-4.46-1.77-1.88504-.087062-3.703355.707526-4.92,2.15-1.257973,1.606624-1.896781,3.611773-1.8,5.65h-9.23c-.036373-2.712296.65421-5.384852,2-7.74c1.348946-2.334244,3.33239-4.237935,5.72-5.49c2.58121-1.359409,5.463083-2.047206,8.38-2q7.16,0,11.13,3.44t4,9.71c-.037189,2.440501-.646884,4.838177-1.78,7-1.65062,3.052807-3.702141,5.871127-6.1,8.38L46.42,66.08h19.93Zm0,0h-31.78v-6.3l15-16c1.717745-1.804469,3.248849-3.777817,4.57-5.89.913427-1.431612,1.424645-3.082709,1.48-4.78.102359-1.757614-.453816-3.490313-1.56-4.86-1.148235-1.225714-2.783743-1.874783-4.46-1.77-1.88504-.087062-3.703355.707526-4.92,2.15-1.257973,1.606624-1.896781,3.611773-1.8,5.65h-9.23c-.036373-2.712296.65421-5.384852,2-7.74c1.348946-2.334244,3.33239-4.237935,5.72-5.49c2.58121-1.359409,5.463083-2.047206,8.38-2q7.16,0,11.13,3.44t4,9.71c-.037189,2.440501-.646884,4.838177-1.78,7-1.65062,3.052807-3.702141,5.871127-6.1,8.38L46.42,66.08h19.93Z" transform="matrix(.103414 0 0 0.103414 4.311764 6.523025)" fill="#627264"/><path id="wdd231-logo-u-three" d="M44.38,45.92h4.9q3.5,0,5.19-1.75c1.161951-1.261967,1.770531-2.936464,1.69-4.65.093984-1.625517-.514144-3.213206-1.67-4.36-1.273072-1.096752-2.9224-1.656089-4.6-1.56-1.601504-.054546-3.170695.459071-4.43,1.45-1.157558.903329-1.818023,2.302179-1.78,3.77h-9.2c-.017366-2.323849.68091-4.596736,2-6.51c1.374948-1.980718,3.271767-3.541787,5.48-4.51c2.433965-1.099685,5.07934-1.652654,7.75-1.62q7.36,0,11.53,3.52c2.814188,2.415271,4.353539,5.996015,4.17,9.7.004329,2.111774-.676397,4.167986-1.94,5.86-1.305894,1.793602-3.061554,3.211238-5.09,4.11c2.344752.741386,4.391043,2.213033,5.84,4.2c1.311291,1.954523,1.985475,4.267009,1.93,6.62.13264,3.824713-1.537114,7.490027-4.51,9.9q-4.51,3.73-11.92,3.73-6.94,0-11.35-3.66c-2.897937-2.363302-4.528526-5.942463-4.41-9.68h9.2c-.033394,1.656855.705775,3.234981,2,4.27c1.350916,1.121821,3.064795,1.712078,4.82,1.66c1.834557.073354,3.628621-.552066,5.02-1.75c1.254666-1.193143,1.932748-2.87012,1.86-4.6q0-6.94-7.64-6.94h-4.84Zm0,0h4.9q3.5,0,5.19-1.75c1.161951-1.261967,1.770531-2.936464,1.69-4.65.093984-1.625517-.514144-3.213206-1.67-4.36-1.273072-1.096752-2.9224-1.656089-4.6-1.56-1.601504-.054546-3.170695.459071-4.43,1.45-1.157558.903329-1.818023,2.302179-1.78,3.77h-9.2c-.017366-2.323849.68091-4.596736,2-6.51c1.374948-1.980718,3.271767-3.541787,5.48-4.51c2.433965-1.099685,5.07934-1.652654,7.75-1.62q7.36,0,11.53,3.52c2.814188,2.415271,4.353539,5.996015,4.17,9.7.004329,2.111774-.676397,4.167986-1.94,5.86-1.305894,1.793602-3.061554,3.211238-5.09,4.11c2.344752.741386,4.391043,2.213033,5.84,4.2c1.311291,1.954523,1.985475,4.267009,1.93,6.62.13264,3.824713-1.537114,7.490027-4.51,9.9q-4.51,3.73-11.92,3.73-6.94,0-11.35-3.66c-2.897937-2.363302-4.528526-5.942463-4.41-9.68h9.2c-.033394,1.656855.705775,3.234981,2,4.27c1.350916,1.121821,3.064795,1.712078,4.82,1.66c1.834557.073354,3.628621-.552066,5.02-1.75c1.254666-1.193143,1.932748-2.87012,1.86-4.6q0-6.94-7.64-6.94h-4.84Z" transform="matrix(.100225 0 0 0.100225 7.770246 6.803698)" fill="#627264"/><path id="wdd231-logo-u-one" d="M60.09,73.21h-9.2v-35.47l-11,3.41v-7.48l19.2-6.88h1Zm0,0h-9.2v-35.47l-11,3.41v-7.48l19.2-6.88h1Z" transform="matrix(.099996 0 0 0.098369 10.412019 6.882598)" fill="#627264"/><g id="wdd231-logo-s-g1" transform="matrix(1 0 0 1.096591 0.531555-1.081909)"><rect id="wdd231-logo-s-rect8" width="0.53125" height="4.529089" rx="0" ry="0" transform="matrix(.934345-.35637 0.35637 0.934345 2.331724 9.630264)" fill="#627264" stroke-width="0"/><rect id="wdd231-logo-s-rect9" width="0.625" height="4.529088" rx="0" ry="0" transform="matrix(.95236 0.304977-.304977 0.95236 6.695088 9.562915)" fill="#627264" stroke-width="0"/><rect id="wdd231-logo-s-rect10" width="0.59375" height="2.202308" rx="0" ry="0" transform="matrix(.941642 0.336616-.336616 0.941642 4.533243 11.642635)" fill="#627264" stroke-width="0"/><rect id="wdd231-logo-s-rect11" width="0.65625" height="2.202308" rx="0" ry="0" transform="matrix(.897259-.441505 0.441505 0.897259 4.533243 12.104619)" fill="#627264" stroke-width="0"/></g></svg>
