<svg id="oc-chamber-of-commerce-logo" xmlns="http://www.w3.org/2000/svg" xmlns:xlink="http://www.w3.org/1999/xlink" viewBox="0 0 48 48" shape-rendering="geometricPrecision" text-rendering="geometricPrecision" project-id="16697da33fac48a3b00c8779231d9940" export-id="d80f79ec55cf4a6293acac0391e6213c" cached="false"><g id="oc-chamber-of-commerce-logo-s-g1" transform="matrix(2.788316 0 0 3.142184 0.714859-3.536325)"><ellipse id="oc-chamber-of-commerce-logo-s-ellipse1" rx="5.644536" ry="5.400593" transform="translate(9.840794 8)" fill="#ee9636" stroke="#cb802e" stroke-width="0.4"/><g id="oc-chamber-of-commerce-logo-s-g2" transform="translate(-.22009 0.004031)"><rect id="oc-chamber-of-commerce-logo-s-rect1" width="1.525879" height="4.585281" rx="0" ry="0" transform="matrix(1.508323 0 0 1 6.779633 7.520773)" fill="#54e330" stroke="#216310" stroke-width="0.5"/><rect id="oc-chamber-of-commerce-logo-s-rect2" width="1.525879" height="4.585281" rx="0" ry="0" transform="matrix(1.383112 0 0 1.680698 9.126096 5.427375)" fill="#54e330" stroke="#216310" stroke-width="0.5"/><rect id="oc-chamber-of-commerce-logo-s-rect3" width="1.525879" height="4.585281" rx="0" ry="0" transform="matrix(1.379911 0 0 1 11.236557 8.548566)" fill="#54e330" stroke="#216310" stroke-width="0.5"/></g><path id="oc-chamber-of-commerce-logo-s-path1" d="M13.62033,14.453003h-7.301446q-.738554-.94-.758554-.94t-1.86248.06c.303162-.159143,0-2.732643,0-2.732643s4.816195,0,5.499901,0c1.24,0,.839125,1.033811.58,1.265693-.58.519021-2.21438,0-1.777751,0c0,.841684,3.720573.900842,4.843358.54695.476718-.150258,1.020968-1.235783,1.361972-1.210366.470479.035068,1.28.663416,1.28,1.210366s-1.28,1.8-1.865,1.8" transform="translate(0 0.000846)" fill="#fff" stroke="#000" stroke-width="0.5"/><rect id="oc-chamber-of-commerce-logo-s-rect4" width="2.481241" height="5.642822" rx="0" ry="0" transform="translate(1.216609 9.284642)" fill="#fff" stroke="#000"/><path id="oc-chamber-of-commerce-logo-s-path2" d="M5.56033,4.411981c-.501121-.561417-.930941-1.169655-1.364074-1.22058s-.908563-.134335-1.241502.410694-.440172.809886.000001,1.025.939616-.038001,1.241501-.075.543339-.012432.748255,0s.615819-.140114.615819-.140114" transform="matrix(1.360711 0 0 0.965568-1.902862 0.352218)" fill="#54e330" stroke="#216211" stroke-width="0.3"/></g></svg>
