<svg id="es9JXQR3mEh1" xmlns="http://www.w3.org/2000/svg" xmlns:xlink="http://www.w3.org/1999/xlink" viewBox="0 0 16 16" shape-rendering="geometricPrecision" text-rendering="geometricPrecision" project-id="d03166ccec2843898dc6be63038d9959" export-id="9279c3360e2a42f683dc3243979422e8" cached="false" style="background-color:#fff"><path d="M0,1.146C0,0.513,0.526,0,1.175,0h13.65C15.474,0,16,0.513,16,1.146v13.708C16,15.487,15.474,16,14.825,16h-13.65C0.526,16,0,15.487,0,14.854L0,1.146ZM4.943,13.394v-7.225h-2.401v7.225h2.401Zm-1.2-8.212c.837,0,1.358-.554,1.358-1.248-.015-.709-.52-1.248-1.342-1.248s-1.359.54-1.359,1.248c0,.694.521,1.248,1.327,1.248h.016Zm4.908,8.212v-4.035c0-.216.016-.432.08-.586.173-.431.568-.878,1.232-.878.869,0,1.216.662,1.216,1.634v3.865h2.401v-4.144c0-2.22-1.184-3.252-2.764-3.252-1.274,0-1.845.7-2.165,1.193v.025h-.016l.016-.025v-1.022h-2.4c.03.678,0,7.225,0,7.225h2.4Z" fill="#001657"/></svg>
