<svg id="e92QmeMpZPa1" xmlns="http://www.w3.org/2000/svg" xmlns:xlink="http://www.w3.org/1999/xlink" viewBox="0 0 16 16" shape-rendering="geometricPrecision" text-rendering="geometricPrecision" project-id="48a34eee941d4e138803625f2ed2e257" export-id="13aebdfe7e4a4d8a815ca429f2cd5cf9" cached="false"><rect width="19.391047" height="16" rx="0" ry="0" transform="translate(.000001 0)" fill="#001657" stroke-width="0"/><path d="M37.988241,72.2021c21.667439,0,33.518162-17.938231,33.518162-33.49106q0-.763328,0-1.517116c2.304287-1.667946,4.292937-3.732531,5.87284-6.09709-2.151975.948655-4.434192,1.569406-6.770477,1.841531c2.460879-1.469208,4.303644-3.781822,5.185287-6.50738-2.311052,1.372647-4.839799,2.340732-7.477127,2.862484-3.657174-3.852442-9.441227-4.785084-14.12555-2.277654s-7.111709,7.8355-5.928051,13.011969c-9.493154-.459506-18.341557-4.93565-24.331704-12.308681-3.125624,5.379327-1.528522,12.259689,3.647846,15.715036-1.871405-.055913-3.702041-.559831-5.338077-1.469408c0,.047709,0,.095417,0,.152667.002891,5.603037,3.956981,10.427915,9.45384,11.535809-1.734391.471931-3.553947.540477-5.318979.200374c1.54162,4.794383,5.961935,8.080102,11.000832,8.177162-4.172954,3.271368-9.325556,5.045763-14.62958,5.037971-.938204.000836-1.875649-.053326-2.807504-.162207c5.386822,3.457089,11.655554,5.292134,18.05779,5.286054" transform="matrix(.174097 0 0 0.174097-.471494-.515169)" fill="#fff"/></svg>
